<?xml version="1.0" standalone="no"?>
<!DOCTYPE svg PUBLIC "-//W3C//DTD SVG 20010904//EN"
 "http://www.w3.org/TR/2001/REC-SVG-20010904/DTD/svg10.dtd">
<svg version="1.0" xmlns="http://www.w3.org/2000/svg"
 width="658.602304pt" height="747.228082pt" viewBox="0 0 658.602304 747.228082"
 preserveAspectRatio="xMidYMid meet">
<metadata>
Created by Potrace Professional 1.1m
</metadata>
<g transform="translate(-31.849150,783.683221) rotate(-360.00) scale(0.095238,-0.095238)"
fill="#000000" stroke="none">
<path d="M5749 8222 c-29 -5 -183 -28 -341 -52 -1232 -182 -1594 -251 -1797
-341 -277 -123 -467 -384 -488 -672 -6 -80 -4 -106 27 -248 l12 -58 -83 -157
c-45 -87 -120 -228 -165 -315 -45 -86 -92 -176 -105 -199 -13 -24 -86 -161
-163 -305 -293 -551 -778 -1438 -814 -1490 -14 -19 -15 -18 -22 9 -4 17 -2 37
4 47 45 64 141 234 154 272 21 58 21 141 1 179 -22 42 -73 82 -124 98 -27 8
-108 13 -208 13 l-163 0 -107 108 c-110 112 -184 160 -249 160 -93 0 -166 -56
-204 -155 -24 -63 -53 -229 -53 -304 0 -44 -1 -46 -97 -118 -165 -122 -228
-201 -229 -282 0 -91 70 -140 255 -176 l90 -18 12 -84 c37 -254 152 -378 289
-312 27 13 86 60 131 106 l82 82 98 -41 c107 -44 104 -39 84 -126 -34 -150 15
-301 173 -541 l69 -105 -6 -89 c-5 -82 -8 -92 -38 -118 -17 -16 -40 -29 -50
-29 -195 -1 -429 -13 -511 -25 -316 -49 -568 -159 -752 -329 -124 -115 -153
-185 -104 -248 40 -50 73 -47 187 18 140 80 258 133 406 183 223 76 331 94
730 123 238 17 268 22 337 66 45 29 64 56 93 132 l11 30 76 -67 c111 -98 157
-133 289 -219 65 -42 118 -80 118 -84 0 -30 -116 -154 -250 -265 -98 -82 -133
-140 -133 -218 1 -109 63 -185 177 -214 146 -38 345 56 545 259 51 52 108 117
127 145 l34 50 52 -24 c28 -13 91 -39 139 -58 72 -29 87 -39 93 -62 12 -51 54
-143 118 -258 101 -181 168 -400 169 -557 1 -123 42 -194 112 -194 97 -1 140
68 140 224 0 169 -41 330 -132 516 -48 98 -55 122 -50 155 5 33 10 38 28 34
82 -19 231 -39 374 -49 200 -16 438 -2 583 33 135 32 272 101 348 174 l62 59
47 -12 c26 -7 71 -19 100 -27 l52 -16 17 -86 c30 -156 95 -250 174 -249 40 0
101 42 198 137 l73 72 76 -36 c103 -50 194 -79 242 -79 117 0 174 120 152 318
l-9 82 70 57 c129 104 196 205 183 279 -9 51 -53 105 -107 131 -51 24 -177 57
-219 57 l-33 0 -7 94 c-11 140 -34 191 -103 227 -59 31 -147 7 -250 -68 l-46
-33 -35 34 -34 33 35 64 c19 35 98 175 174 311 76 135 164 291 195 346 30 55
119 213 197 352 396 706 480 864 480 902 0 33 9 41 94 86 119 62 247 192 304
309 118 243 120 503 4 803 -68 176 -355 746 -554 1102 -263 470 -303 536 -374
607 -49 49 -93 81 -142 105 -66 31 -82 34 -182 35 -61 1 -134 -2 -163 -6z
m265 -164 c21 -9 50 -26 64 -39 l24 -23 -129 -18 c-139 -19 -614 -92 -770
-118 -52 -9 -156 -26 -231 -38 -602 -97 -1073 -205 -1262 -289 -74 -32 -166
-102 -204 -154 -53 -74 -138 -277 -159 -381 -8 -38 -31 35 -37 116 -9 124 43
278 131 392 75 96 155 151 302 206 124 47 622 146 1035 205 83 12 180 27 215
33 192 34 840 123 906 124 47 0 91 -6 115 -16z m-113 -335 c6 -17 6 -80 -1
-175 -10 -138 -10 -150 8 -167 11 -10 83 -50 161 -90 150 -76 189 -105 189
-140 0 -38 -40 -54 -320 -129 l-53 -14 -8 -189 c-7 -173 -9 -190 -30 -207 -12
-10 -30 -18 -41 -18 -16 0 -68 63 -139 168 -129 191 -136 200 -163 200 -13 0
-99 -19 -192 -42 -196 -49 -240 -52 -259 -21 -19 30 -9 55 55 141 30 41 63 88
74 105 11 18 33 49 50 71 16 21 30 47 31 58 1 10 -35 76 -80 148 -83 131 -104
188 -80 217 21 25 53 19 239 -42 96 -32 181 -58 189 -58 15 0 95 52 227 149
92 67 127 76 143 35z m-1909 -344 c5 -7 7 -30 6 -50 -2 -26 -10 -40 -30 -51
-60 -34 -120 22 -88 82 8 17 21 33 28 36 20 9 75 -3 84 -17z m182 -144 c35
-22 67 -50 152 -131 204 -195 484 -397 784 -565 58 -33 114 -72 123 -86 24
-36 22 -109 -4 -151 -12 -20 -39 -42 -61 -51 -61 -26 -121 -5 -369 131 -312
170 -816 585 -836 689 -9 47 -1 78 28 116 53 66 125 85 183 48z m-326 -347
c11 -12 17 -21 14 -21 -3 0 -14 9 -24 21 -11 12 -17 21 -14 21 3 0 14 -9 24
-21z m167 -164 c8 -20 3 -18 -20 7 -16 18 -17 20 -3 15 10 -4 20 -13 23 -22z
m-656 -90 l45 -65 -33 -69 -34 -70 22 -43 c12 -24 27 -47 33 -50 6 -4 23 -27
38 -51 68 -107 433 -436 650 -584 247 -170 337 -222 593 -346 234 -113 385
-168 708 -259 74 -21 397 -86 471 -94 34 -4 57 -11 52 -14 -5 -4 -26 -35 -46
-70 -20 -34 -42 -72 -49 -84 -42 -69 -49 -105 -18 -93 8 4 13 10 10 16 -4 5
-1 17 4 27 9 16 10 15 8 -7 -1 -15 -8 -37 -15 -50 -7 -12 -9 -24 -5 -26 13 -5
56 -98 56 -120 0 -10 -17 15 -37 56 -108 227 -263 329 -496 328 -154 0 -266
-41 -373 -136 -180 -161 -235 -410 -138 -628 32 -72 31 -77 -4 -59 -16 8 -56
17 -88 21 -47 6 -65 3 -102 -16 -91 -46 -100 -174 -18 -246 73 -64 229 -104
314 -80 50 14 112 69 112 100 0 20 -3 20 67 -11 32 -14 78 -29 101 -32 23 -4
42 -9 42 -12 0 -2 -9 -17 -20 -32 -11 -16 -48 -75 -81 -132 -34 -57 -71 -118
-82 -137 -11 -18 -63 -105 -115 -193 -53 -89 -115 -193 -138 -231 l-43 -71
-57 3 c-205 11 -495 70 -734 149 -217 73 -251 86 -455 187 -266 132 -541 313
-737 485 -99 86 -284 281 -341 358 l-62 83 32 60 c19 37 27 62 20 64 -6 3 -11
9 -11 15 0 7 5 7 14 -1 17 -14 23 -7 52 57 11 23 26 54 34 70 8 15 15 32 15
38 0 7 13 32 29 57 17 24 39 64 50 87 12 23 24 43 29 45 4 2 8 10 8 19 0 8 4
15 10 15 17 0 12 23 -16 76 -15 27 -22 50 -16 50 6 0 11 10 10 23 0 16 -3 19
-7 8 -3 -9 -15 -22 -25 -30 -11 -7 -44 -61 -73 -118 -28 -58 -73 -143 -99
-190 -42 -76 -64 -133 -36 -92 10 14 11 14 7 0 -3 -9 -10 -15 -17 -14 -6 2
-25 -24 -40 -57 -16 -33 -37 -68 -47 -76 -24 -22 -281 -502 -281 -526 0 -10
-5 -20 -10 -22 -16 -6 -108 -200 -102 -215 4 -9 2 -13 -4 -9 -5 3 -17 -9 -27
-28 -15 -29 -19 -31 -27 -16 -24 42 -51 140 -51 182 0 51 57 166 331 670 225
415 432 799 588 1092 73 139 149 281 168 315 19 35 85 160 147 279 62 118 146
276 187 351 40 75 79 147 85 160 6 13 14 24 17 23 2 0 25 -29 51 -64z m762 2
c11 -12 17 -21 14 -21 -3 0 -14 9 -24 21 -11 12 -17 21 -14 21 3 0 14 -9 24
-21z m95 -75 c6 -8 1 -8 -14 1 -12 6 -25 16 -29 23 -5 8 -1 8 15 -1 12 -6 25
-16 28 -23z m-2980 -1548 c70 -79 132 -166 123 -175 -15 -15 100 -11 240 8
104 15 139 16 157 6 20 -10 17 -11 -28 -8 -28 3 -45 1 -37 -4 10 -6 10 -9 -2
-13 -8 -2 -3 -3 11 0 26 4 64 -22 64 -46 0 -11 5 -12 21 -3 12 6 21 17 21 25
0 9 4 18 9 21 6 3 9 -9 8 -28 -2 -18 -8 -35 -15 -37 -7 -2 -12 -9 -12 -14 0
-19 -46 -72 -56 -65 -6 4 -7 1 -3 -7 10 -15 -24 -55 -39 -46 -6 4 -8 2 -3 -5
4 -6 -12 -31 -34 -54 -37 -38 -54 -78 -54 -123 0 -8 4 -12 10 -9 6 4 8 0 4
-10 -4 -10 1 -23 13 -31 15 -11 19 -29 20 -88 0 -41 -2 -72 -5 -70 -3 2 -4
-16 -2 -39 4 -43 4 -43 -26 -35 -42 10 -281 114 -286 124 -4 10 -33 10 -33 0
0 -5 -11 -20 -24 -35 -25 -27 -37 -45 -100 -136 -21 -32 -46 -65 -54 -73 -13
-14 -14 -14 -8 1 3 11 -2 28 -14 41 l-20 24 0 -30 c0 -47 -10 -25 -20 45 -7
54 -6 63 6 54 7 -7 14 -22 14 -34 0 -16 2 -19 12 -10 15 16 -8 254 -27 274 -8
8 -43 13 -91 14 -43 1 -83 4 -89 8 -6 3 -31 11 -57 17 l-47 10 52 44 c29 24
90 69 136 100 58 39 85 64 90 84 4 16 9 108 11 205 2 97 5 180 7 185 3 4 11 2
19 -4 22 -18 32 -4 14 19 -14 17 -13 17 6 3 12 -9 25 -21 29 -27 4 -6 8 -6 8
-1 0 6 -8 19 -18 31 -18 20 -18 20 4 9 13 -7 55 -48 95 -92z m549 -193 c0 -6
-2 -11 -5 -11 -2 0 -7 5 -11 11 -3 5 -1 10 5 10 6 0 11 -5 11 -10z m745 -23
c-6 -11 -12 -19 -13 -19 -2 0 -3 8 -3 19 0 10 6 19 13 19 9 0 10 -5 3 -19z
m2738 0 c49 -47 17 -124 -51 -124 -45 0 -72 26 -72 69 0 69 73 102 123 55z
m279 -99 c110 -56 153 -177 102 -283 -66 -135 -260 -145 -347 -18 -35 51 -40
142 -12 198 53 103 166 148 257 103z m-4507 -16 c0 -6 -5 -8 -11 -4 -6 3 -10
11 -10 17 0 6 4 7 10 4 6 -4 11 -11 11 -17z m-32 -20 c0 -6 -2 -10 -5 -10 -2
0 -7 4 -11 10 -3 6 -1 11 5 11 6 0 11 -5 11 -11z m1455 -62 c-4 -12 -11 -22
-16 -22 -5 0 -4 11 3 25 14 31 22 28 13 -3z m3392 -88 c-2 -7 -5 -1 -5 14 0
14 3 20 5 13 3 -8 3 -19 0 -27z m-3467 -85 c-5 -21 -10 -26 -18 -18 -8 8 -8
15 0 23 7 7 9 20 6 29 -5 13 -3 14 7 6 7 -7 9 -23 5 -40z m-1571 4 c15 0 16
-2 2 -11 -11 -7 -3 -8 27 -4 34 5 45 3 50 -10 3 -9 17 -17 30 -17 20 0 21 2 9
11 -10 6 -11 10 -4 10 7 0 16 -5 19 -10 3 -6 14 -7 23 -4 12 5 15 3 9 -6 -6
-10 -2 -12 13 -7 14 4 23 1 28 -11 3 -10 4 -20 1 -23 -3 -3 -5 -1 -5 4 0 6
-13 11 -29 13 -16 1 -69 10 -118 19 -50 9 -98 16 -108 16 -22 0 -23 5 -5 25 7
8 19 13 27 10 7 -3 22 -5 31 -5z m866 -134 c2 -16 8 -38 13 -50 l8 -21 -16 21
c-17 24 -34 94 -20 85 5 -3 12 -19 15 -35z m-349 -97 c-12 -12 -25 -21 -28
-21 -4 0 1 9 12 21 10 12 23 21 28 21 5 0 -1 -9 -12 -21z m-237 -168 c-4 -12
-9 -20 -12 -17 -3 3 -2 15 2 28 4 12 9 20 12 17 3 -3 2 -16 -2 -28z m57 -41
c-14 -11 -27 -18 -30 -16 -5 6 32 35 45 36 5 0 -2 -9 -15 -20z m-44 -6 c0 -8
-4 -13 -9 -10 -5 3 -9 10 -9 16 0 5 4 10 9 10 5 0 9 -7 9 -16z m4284 -117 c-3
-3 -12 -4 -20 -1 -8 4 -6 6 6 7 11 0 18 -2 14 -6z m-3307 -88 c110 -155 403
-439 580 -562 208 -145 319 -212 503 -304 368 -184 828 -321 1169 -348 51 -4
92 -10 92 -13 0 -4 -10 -19 -21 -33 -11 -14 -21 -29 -21 -33 0 -4 -30 -52 -67
-105 l-67 -98 -88 3 c-126 5 -234 24 -475 83 -442 108 -1009 399 -1366 700
-145 122 -418 416 -387 416 4 0 -3 8 -16 17 -18 12 -21 20 -12 30 8 10 8 16 1
21 -7 4 -12 1 -12 -7 -1 -8 -5 -4 -10 7 -12 29 -12 48 0 48 14 0 39 -55 34
-77 -3 -12 2 -18 14 -18 12 0 16 6 12 21 -3 12 -2 19 3 16 5 -3 12 5 16 18 4
13 24 58 44 99 21 43 33 81 29 88 -5 8 -4 11 3 6 7 -4 11 4 11 24 -1 18 -4 30
-8 28 -4 -3 -7 5 -7 16 0 20 1 21 14 2 7 -10 22 -30 32 -45z m-129 -119 c-4
-16 -11 -26 -16 -23 -4 3 -3 17 4 31 15 32 21 28 12 -8z m1623 -343 c8 -6 11
-10 5 -10 -6 0 -18 4 -26 10 -9 6 -12 10 -6 10 6 0 18 -4 27 -10z m2037 -295
c11 -20 1 -64 -13 -56 -5 4 -7 14 -4 23 4 9 -6 36 -21 59 l-28 43 28 -26 c16
-14 33 -34 38 -43z m26 -116 c40 -40 79 -72 87 -72 21 0 95 54 168 124 62 59
68 62 84 46 14 -14 18 -40 20 -111 1 -51 6 -98 12 -104 6 -6 62 -15 124 -20
63 -5 126 -14 140 -19 l26 -9 -26 -1 c-21 -1 -23 -3 -10 -11 13 -9 13 -12 1
-20 -8 -5 -12 -14 -8 -20 7 -12 -89 -76 -201 -132 -42 -21 -76 -42 -76 -47 0
-5 15 -49 32 -97 38 -104 64 -190 57 -197 -2 -2 3 -11 12 -20 13 -13 13 -18 2
-25 -23 -15 -33 -10 -18 9 10 11 10 15 2 10 -7 -4 -26 -1 -42 8 -25 13 -26 16
-8 17 15 1 16 3 5 7 -8 3 -26 17 -40 30 -37 34 -185 110 -214 110 -14 0 -38
-14 -55 -31 -34 -36 -103 -69 -126 -60 -12 4 -17 21 -18 59 -1 29 -2 57 -4 63
-1 6 -3 18 -4 27 -2 24 -58 43 -177 57 -67 9 -107 18 -105 25 2 7 60 50 129
96 l126 84 -3 63 c-4 128 -15 216 -28 228 -7 8 -11 19 -9 26 2 7 -1 21 -6 33
-21 37 0 31 39 -12 21 -24 71 -75 112 -114z m-47 96 c0 -6 -3 -10 -5 -10 -3 0
-8 4 -11 10 -4 6 -2 11 4 11 6 0 12 -5 12 -11z m87 -62 c-6 -7 -45 32 -45 45
0 6 11 0 24 -15 14 -14 24 -28 21 -30z m-4392 -150 c0 -7 -7 -6 -16 2 -9 7
-16 15 -16 17 0 2 7 1 16 -3 8 -3 16 -11 16 -16z m-221 -23 c0 -9 -42 -14 -48
-6 -3 6 6 10 21 10 15 0 27 -2 27 -4z m5257 -60 c1 -18 -2 -29 -6 -23 -3 6
-13 13 -22 16 -13 5 -12 7 3 7 10 1 17 5 17 9 -2 10 0 24 4 24 1 0 3 -15 4
-33z m-5231 12 c4 -6 0 -8 -10 -5 -18 7 -21 15 -6 15 5 0 13 -5 16 -10z m5256
-41 c-17 -32 -66 -67 -96 -69 -17 -1 -30 2 -30 7 0 5 -6 6 -13 2 -7 -5 -9 -3
-5 4 4 6 15 9 23 6 9 -4 16 0 16 8 0 19 39 44 44 28 6 -17 50 9 50 29 0 9 5
13 11 10 6 -4 6 -13 0 -25z m-205 -105 c-3 -6 2 -13 11 -16 14 -5 11 -12 -17
-38 -37 -35 -56 -36 -21 -1 24 25 28 43 8 43 -8 0 -7 4 3 11 20 12 24 13 16 1z
m79 4 c0 -3 -11 -10 -24 -17 -22 -12 -22 -11 -9 5 13 16 33 23 33 12z m-536
-355 c0 -2 -13 -15 -29 -29 l-29 -26 26 29 c23 27 32 34 32 26z m-84 -86 c-14
-15 -27 -24 -30 -21 -6 6 31 46 45 46 5 1 -1 -11 -15 -25z m-47 -35 c-3 -3
-14 3 -24 13 -17 18 -17 18 6 6 14 -7 22 -15 18 -19z"/>
<path d="M3303 6361 c-9 -13 -16 -35 -16 -48 0 -14 -5 -22 -10 -19 -5 3 -7 -4
-4 -15 6 -24 24 -39 24 -21 0 6 4 9 9 6 5 -3 7 -17 4 -32 -3 -16 0 -26 7 -26
8 0 12 13 10 34 -3 25 -9 33 -23 32 -14 -1 -17 3 -12 16 4 9 7 26 7 36 0 10 3
16 8 13 10 -6 27 35 18 43 -3 3 -12 -5 -22 -19z"/>
<path d="M3350 6358 c0 -8 4 -17 9 -21 5 -3 7 4 4 15 -6 25 -13 28 -13 6z"/>
<path d="M3329 6326 c0 -9 4 -14 10 -10 6 3 8 11 5 16 -9 15 -15 12 -15 -6z"/>
<path d="M3242 6244 c-13 -27 -13 -38 -3 -51 11 -16 14 -14 30 13 16 27 17 34
4 52 -14 20 -15 19 -31 -14z m13 -25 c-11 -18 -12 -18 -6 0 3 11 6 25 7 32 0
9 2 9 6 0 3 -7 0 -22 -7 -32z"/>
<path d="M3354 6247 c-3 -6 -3 -15 1 -19 4 -4 10 0 13 8 4 12 6 12 14 0 7 -12
9 -11 9 4 1 20 -26 25 -37 7z"/>
<path d="M3193 6153 c-13 -23 -20 -48 -16 -55 4 -7 4 -10 -1 -5 -5 4 -37 -48
-72 -116 -34 -68 -69 -136 -77 -152 -13 -26 -13 -31 6 -51 l21 -23 -48 -56
c-27 -31 -53 -53 -59 -49 -6 4 -8 0 -4 -10 4 -11 -7 -31 -30 -55 -20 -21 -36
-44 -36 -51 1 -7 7 0 16 14 19 34 20 18 1 -19 -21 -41 -37 -196 -28 -272 5
-36 17 -89 27 -118 29 -80 109 -189 177 -240 l59 -46 -26 -20 c-60 -48 -39
-156 43 -229 56 -49 150 -86 221 -87 56 0 84 12 132 54 56 50 47 143 -20 198
l-36 31 61 12 c195 40 373 221 423 430 18 75 9 243 -16 306 -104 263 -371 399
-631 320 -33 -10 -54 -11 -61 -5 -7 7 -5 11 4 11 8 0 12 2 9 5 -3 3 -14 2 -24
-1 -14 -6 -15 -9 -4 -16 17 -11 8 -20 -24 -24 -14 -1 -27 -7 -30 -12 -2 -6
-24 -23 -47 -38 -42 -29 -64 -30 -54 -2 4 8 2 12 -4 9 -6 -4 -10 0 -10 9 0 11
5 14 18 9 15 -5 16 -4 5 10 -23 29 -1 29 24 0 14 -16 25 -23 26 -16 0 7 -7 17
-15 21 -14 9 -20 27 -18 54 1 8 6 11 11 8 15 -9 25 14 13 29 -6 7 -7 19 -3 26
6 9 12 5 22 -14 8 -14 22 -26 31 -26 14 1 14 3 -2 15 -22 17 -23 27 -3 27 20
0 42 38 27 47 -6 4 -4 16 7 32 9 14 14 33 10 42 -3 8 -2 16 3 16 6 0 12 -6 15
-14 3 -7 6 -2 6 12 1 13 -4 33 -10 44 -8 16 -7 19 4 14 16 -6 30 29 18 47 -4
7 -17 -5 -31 -30z m-27 -129 c-9 -15 -24 -29 -33 -33 -12 -4 -10 2 6 25 12 16
22 36 22 44 0 9 3 10 11 2 8 -9 7 -19 -6 -38z m284 -296 c34 -34 33 -72 -3
-100 -36 -28 -74 -24 -101 13 -26 35 -16 79 25 99 37 19 50 17 79 -12z m225
-110 c83 -43 130 -149 106 -239 -16 -59 -78 -123 -134 -140 -53 -15 -123 -7
-169 21 -74 45 -114 154 -87 236 16 49 69 110 111 128 47 21 126 18 173 -6z"/>
<path d="M3272 6180 c-3 -9 -2 -16 3 -16 5 0 12 -11 17 -24 6 -20 8 -21 12 -6
3 10 -2 28 -10 40 -13 18 -16 19 -22 6z"/>
<path d="M3192 6011 c-8 -9 -9 -15 -2 -15 5 0 13 7 16 15 4 9 5 16 3 16 -2 0
-10 -7 -17 -16z"/>
<path d="M3250 5891 c3 -6 8 -11 11 -11 2 0 5 5 5 11 0 5 -6 10 -12 10 -6 0
-8 -5 -4 -10z"/>
<path d="M3169 5883 c8 -3 17 -2 20 1 4 4 -3 6 -14 6 -12 -1 -14 -3 -6 -7z"/>
<path d="M2993 5766 c0 -6 4 -14 10 -17 6 -4 11 -2 11 4 0 6 -5 13 -11 17 -6
3 -10 2 -10 -4z"/>
<path d="M2946 5673 c-6 -15 -5 -16 6 -6 7 7 10 16 7 19 -3 3 -9 -3 -13 -13z"/>
<path d="M2853 5505 c-3 -5 -1 -18 4 -29 7 -19 8 -18 9 8 0 28 -4 36 -13 21z"/>
<path d="M2831 5454 c-4 -10 -5 -20 -2 -23 3 -3 9 2 12 12 4 10 5 20 2 23 -3
3 -8 -3 -12 -12z"/>
<path d="M2778 5358 c-3 -10 -5 -22 -3 -26 1 -3 -5 -15 -15 -26 -9 -10 -22
-31 -29 -45 -11 -23 -11 -24 2 -9 12 15 15 15 24 2 7 -12 10 -8 11 17 1 19 8
38 16 43 12 8 12 9 0 9 -11 0 -11 6 3 27 9 14 12 26 7 26 -6 0 -13 -8 -16 -18z"/>
<path d="M4135 5218 c-58 -34 -108 -193 -100 -321 12 -196 118 -313 286 -313
61 -1 85 5 143 32 155 74 269 269 198 340 -28 28 -60 26 -128 -5 -30 -15 -74
-26 -97 -26 -51 -1 -118 31 -158 73 -27 28 -31 41 -36 121 -7 96 -15 110 -64
110 -14 -1 -34 -5 -44 -11z"/>
<path d="M2673 5156 c-4 -5 -2 -12 3 -15 4 -3 9 1 9 10 0 17 -4 19 -12 5z"/>
<path d="M2700 5145 c0 -14 3 -20 5 -13 3 7 3 19 0 26 -2 7 -5 1 -5 -13z"/>
<path d="M2674 5089 c-3 -8 1 -14 9 -14 7 0 11 6 8 14 -3 8 -7 14 -8 14 -2 0
-6 -6 -9 -14z"/>
<path d="M2756 4725 c4 -6 9 -10 11 -10 3 0 5 4 5 10 0 6 -5 11 -11 11 -6 0
-8 -5 -5 -11z"/>
<path d="M1134 5040 c0 -6 5 -10 11 -10 6 0 8 4 5 10 -4 6 -9 11 -11 11 -3 0
-5 -5 -5 -11z"/>
<path d="M1203 4996 c3 -4 12 -5 21 -2 21 9 19 13 -5 12 -11 -1 -18 -5 -16
-10z"/>
<path d="M1230 4947 c-12 -8 -11 -14 4 -37 10 -16 21 -26 24 -23 3 3 -1 13 -8
21 -7 9 -11 23 -7 32 7 18 6 19 -13 7z"/>
<path d="M1271 4868 c-1 -13 66 -100 76 -101 5 0 -1 14 -12 30 -12 17 -19 33
-15 37 3 3 -1 7 -10 7 -10 0 -22 8 -28 18 -6 10 -11 14 -11 9z"/>
<path d="M1609 4833 c10 -2 27 -2 37 0 10 3 2 5 -18 5 -21 0 -29 -2 -19 -5z"/>
<path d="M1426 4802 c8 -3 17 -3 20 1 4 3 -3 6 -14 5 -12 0 -14 -3 -6 -6z"/>
<path d="M1701 4759 c-14 -22 -43 -58 -65 -81 -21 -23 -60 -69 -87 -102 l-49
-60 47 -103 c32 -70 53 -102 64 -101 9 1 17 -6 17 -14 0 -8 -5 -12 -11 -9 -6
4 -10 2 -10 -3 0 -6 7 -13 15 -16 28 -11 16 86 -14 119 l-25 26 17 -33 c18
-36 22 -66 9 -66 -14 0 -35 85 -29 124 2 21 2 30 -1 20 -3 -10 -10 -16 -15
-13 -16 10 -12 61 6 87 9 13 14 28 10 33 -3 6 1 8 10 5 9 -4 17 -1 17 5 0 7 4
10 10 7 5 -4 7 -15 4 -25 -5 -14 -4 -14 4 -3 6 7 8 23 5 34 -3 11 0 20 7 20 6
0 12 -6 12 -13 0 -20 14 1 15 24 2 14 -3 19 -13 15 -8 -3 -11 -1 -7 6 4 6 17
9 29 6 22 -6 22 -6 2 10 -18 13 -19 17 -5 25 8 6 24 7 35 4 15 -5 18 -2 12 15
-3 12 -1 24 4 28 7 4 9 0 6 -8 -4 -9 0 -18 8 -21 20 -7 17 33 -3 45 -12 8 -12
12 -2 23 7 7 13 16 13 21 0 19 -17 6 -42 -31z"/>
<path d="M1425 4781 c8 -3 19 -3 27 0 7 3 1 5 -13 5 -15 0 -21 -2 -14 -5z"/>
<path d="M1365 4766 c0 -6 5 -8 11 -4 5 3 10 8 10 11 0 2 -5 5 -10 5 -6 0 -11
-6 -11 -12z"/>
<path d="M5955 2864 c-1 -101 1 -113 19 -123 11 -6 31 -11 44 -10 20 1 18 3
-9 11 -37 10 -42 19 -23 38 9 8 8 30 -5 83 -9 40 -18 81 -21 93 -2 11 -5 -30
-5 -92z"/>
<path d="M6082 2723 c11 -3 25 -3 32 0 7 3 -1 5 -19 5 -17 0 -23 -3 -13 -5z"/>
<path d="M1173 2494 c-30 -15 -69 -56 -70 -71 0 -5 11 -1 26 9 14 9 26 23 26
30 0 8 14 19 32 25 17 6 31 14 31 17 0 9 -14 6 -45 -10z"/>
<path d="M1181 2468 c-3 -6 -1 -11 5 -11 6 0 11 5 11 11 0 5 -2 10 -5 10 -2 0
-7 -5 -11 -10z"/>
<path d="M1158 2410 c-18 -20 -17 -26 5 -26 12 0 19 7 19 21 0 24 -6 25 -24 5z"/>
<path d="M1097 2375 c5 -49 17 -73 44 -85 32 -14 46 -15 46 0 0 6 -5 8 -10 5
-23 -14 -43 8 -43 45 0 26 -6 42 -20 51 -18 11 -20 10 -17 -16z"/>
<path d="M1213 2289 c11 -5 28 -9 37 -9 9 0 7 3 -6 9 -11 5 -28 9 -36 9 -10 0
-8 -3 5 -9z"/>
<path d="M1356 2115 c-34 -39 -22 -42 14 -4 17 17 26 31 20 31 -6 0 -21 -12
-34 -27z"/>
<path d="M1277 2070 c-18 -20 -36 -99 -30 -130 2 -10 21 -30 41 -44 29 -19 43
-23 61 -16 14 5 27 6 31 2 3 -3 6 -2 6 4 0 5 -14 23 -31 39 -17 16 -31 33 -31
37 5 31 -3 86 -12 86 -6 0 -8 -5 -5 -10 3 -6 -3 -16 -15 -22 -18 -10 -21 -8
-21 11 0 14 4 19 12 14 7 -4 9 -3 5 4 -4 6 0 19 9 28 10 9 13 17 7 17 -5 0
-17 -9 -27 -20z m25 -138 c-6 -12 -16 -19 -21 -15 -6 3 -5 12 3 20 19 23 31
19 18 -5z"/>
<path d="M1040 1589 c-291 -158 -419 -231 -444 -253 -77 -72 -28 -181 83 -181
43 0 74 28 196 179 35 43 105 124 156 180 120 131 120 135 9 75z"/>
<path d="M2860 1370 c-20 -20 -25 -34 -21 -55 36 -186 34 -560 -3 -715 -27
-109 -24 -155 12 -188 35 -31 65 -37 105 -20 78 33 115 156 115 385 1 156 -16
263 -67 441 -36 125 -53 163 -77 172 -28 11 -36 8 -64 -20z"/>
<path d="M2011 1271 c-24 -105 12 -177 82 -163 25 5 29 4 18 -5 -20 -14 -10
-14 25 -1 18 7 25 16 20 27 -4 10 -1 14 9 10 8 -3 22 7 32 25 23 39 24 50 2
28 -9 -9 -27 -16 -41 -16 -27 0 -45 -41 -23 -55 8 -5 8 -8 1 -8 -7 0 -24 11
-40 26 l-27 25 23 5 24 4 -24 8 c-13 4 -23 12 -23 16 0 5 -9 11 -19 15 -15 6
-16 5 -5 -6 16 -16 17 -30 3 -30 -6 0 -11 7 -11 16 0 8 -6 16 -13 16 -10 0
-10 2 0 8 10 6 11 20 5 50 l-9 41 -9 -36z"/>
<path d="M1167 1247 c-116 -130 -165 -225 -155 -304 15 -127 119 -214 230
-193 61 11 115 70 221 241 56 90 102 166 102 170 0 4 -8 1 -17 -6 -8 -8 -13
-16 -11 -18 10 -10 -82 -107 -119 -126 -91 -46 -201 0 -247 102 -22 49 -15
108 17 130 12 8 20 21 18 29 -2 9 -16 0 -39 -25z"/>
<path d="M3197 1271 c-3 -6 -2 -11 4 -11 6 0 13 -8 15 -18 4 -15 5 -14 6 4 2
26 -14 41 -25 25z"/>
<path d="M3171 1217 c0 -19 20 -41 39 -41 7 0 14 7 14 16 0 10 4 14 12 9 7 -4
9 -3 5 4 -4 6 -17 8 -29 5 -13 -3 -26 1 -31 9 -8 12 -10 12 -10 -2z"/>
<path d="M1580 1207 c-4 -6 -5 -14 -2 -16 3 -3 8 2 11 11 7 18 1 22 -9 5z"/>
<path d="M2422 1119 c-11 -80 -8 -151 8 -182 32 -64 96 -93 149 -71 38 16 81
67 73 86 -3 8 -1 14 5 14 5 0 10 12 10 27 l0 26 -23 -21 c-37 -34 -110 -26
-153 16 -7 7 -13 18 -13 24 0 6 -6 17 -14 24 -7 8 -18 36 -24 62 l-10 47 -8
-52z m28 -85 c-3 -9 -8 -14 -11 -11 -3 2 -2 10 2 16 10 17 16 13 9 -5z m53
-129 c23 -26 10 -37 -15 -12 -11 11 -20 23 -20 26 0 11 18 4 35 -14z m122 9
c0 -6 -5 -11 -11 -11 -6 0 -8 5 -5 11 4 5 9 10 11 10 3 0 5 -5 5 -10z m-37
-22 c-10 -16 -26 -11 -19 6 3 8 10 13 15 9 6 -3 7 -10 4 -15z"/>
</g>
</svg>
